<?xml version="1.0" encoding="utf-8"?>
<!-- Generator: Adobe Illustrator 23.0.1, SVG Export Plug-In . SVG Version: 6.00 Build 0)  -->
<svg version="1.1" id="Layer_1" xmlns="http://www.w3.org/2000/svg" xmlns:xlink="http://www.w3.org/1999/xlink" x="0px" y="0px"
	 width="512px" height="512px" viewBox="0 0 512 512" style="enable-background:new 0 0 512 512;" xml:space="preserve" class="service-icon">
<style type="text/css">
	.st0{fill:#0063DD;}
</style>
<path id="Shape" class="st0" d="M52.1,489.6l-41.3-11.4c-2.9-0.8-6.1,0-8.3,2.1s-3,5.3-2.3,8.2c0.8,3,3,5.3,6,6.1L47.6,506
	c28.5,8,58.6,8,87,0c25.5-7.1,52.4-7.1,77.9,0c28.5,8,58.6,8,87,0c25.5-7.2,52.4-7.2,77.9,0c28.5,8,58.6,8,87,0l41.2-11.4
	c2.9-0.8,5.2-3.1,6-6.1c0.8-3-0.1-6.1-2.3-8.2s-5.3-3-8.3-2.1l-41.3,11.4c-25.5,7.2-52.4,7.2-77.9,0c-8.6-2.4-17.3-4-26.2-4.9
	l100.7-153.5c4.5-6.8,5.5-15.3,2.6-22.9c-2.8-7.6-9.1-13.4-16.9-15.6l-24.1-7V170.7c0-14.1-11.5-25.6-25.6-25.6H384V68.3
	c0-14.1-11.5-25.6-25.6-25.6h-59.7V17.1C298.7,7.6,291,0,281.6,0h-51.2c-9.4,0-17.1,7.6-17.1,17.1v25.6h-59.7
	c-14.1,0-25.6,11.5-25.6,25.6v76.8h-8.5c-14.1,0-25.6,11.5-25.6,25.6v114.9l-24.1,7c-7.8,2.2-14.1,8-17,15.6
	c-2.8,7.6-1.9,16.1,2.6,22.9l100.7,153.5c-8.8,1-17.6,2.6-26.2,5C104.5,496.7,77.6,496.7,52.1,489.6L52.1,489.6z M295,489.6
	c-9.9,2.8-20.2,4.5-30.5,5.1v-33.9c0-4.7-3.8-8.5-8.5-8.5c-4.7,0-8.5,3.8-8.5,8.5v33.9c-10.3-0.6-20.5-2.4-30.4-5.1
	c-13.4-3.7-27.2-5.7-41.1-5.9l-25.2-38.4l96.7-32.3v13.7c0,4.7,3.8,8.5,8.5,8.5c4.7,0,8.5-3.8,8.5-8.5v-13.7l96.7,32.4l-25.2,38.4
	C322.2,483.9,308.4,485.9,295,489.6L295,489.6z M264.5,370.3l119,41l-12.7,19.3l-106.4-35.7L264.5,370.3z M247.5,394.9l-106.4,35.6
	l-12.7-19.3l119-41V394.9z M443.2,314.2c1,2.5,0.6,5.4-0.9,7.6l-49.1,74.8l-128.7-44.3v-93.5l173,50.2
	C440.2,309.7,442.3,311.6,443.2,314.2L443.2,314.2z M230.4,17.1h51.2v25.6h-51.2V17.1z M145.1,68.3c0-4.7,3.8-8.5,8.5-8.5h204.8
	c4.7,0,8.5,3.8,8.5,8.5v76.8H145.1V68.3z M110.9,170.7c0-4.7,3.8-8.5,8.5-8.5h273.1c4.7,0,8.5,3.8,8.5,8.5v110l-142.7-41.4
	c-1.5-0.5-3.2-0.5-4.7,0l-142.7,41.4V170.7z M68.8,314.2c0.9-2.5,3.1-4.5,5.7-5.2l173-50.2v93.5l-128.7,44.3l-49.1-74.8
	C68.2,319.6,67.9,316.7,68.8,314.2L68.8,314.2z"/>
    <path class="st0" d="M290.1,230.4c14.1,0,25.6-11.5,25.6-25.6c0-14.1-11.5-25.6-25.6-25.6c-14.1,0-25.6,11.5-25.6,25.6
		C264.5,218.9,276,230.4,290.1,230.4z M290.1,196.3c4.7,0,8.5,3.8,8.5,8.5c0,4.7-3.8,8.5-8.5,8.5c-4.7,0-8.5-3.8-8.5-8.5
		C281.6,200.1,285.4,196.3,290.1,196.3z"/>
    <path class="st0" d="M221.9,179.2c-14.1,0-25.6,11.5-25.6,25.6c0,14.1,11.5,25.6,25.6,25.6c14.1,0,25.6-11.5,25.6-25.6
		C247.5,190.7,236,179.2,221.9,179.2z M221.9,213.3c-4.7,0-8.5-3.8-8.5-8.5c0-4.7,3.8-8.5,8.5-8.5c4.7,0,8.5,3.8,8.5,8.5
		C230.4,209.5,226.6,213.3,221.9,213.3z"/>
    <path class="st0" d="M153.6,179.2c-14.1,0-25.6,11.5-25.6,25.6c0,14.1,11.5,25.6,25.6,25.6s25.6-11.5,25.6-25.6
		C179.2,190.7,167.7,179.2,153.6,179.2z M153.6,213.3c-4.7,0-8.5-3.8-8.5-8.5c0-4.7,3.8-8.5,8.5-8.5s8.5,3.8,8.5,8.5
		C162.1,209.5,158.3,213.3,153.6,213.3z"/>
    <path class="st0" d="M324.3,76.8c-14.1,0-25.6,11.5-25.6,25.6s11.5,25.6,25.6,25.6c14.1,0,25.6-11.5,25.6-25.6
		S338.4,76.8,324.3,76.8z M324.3,110.9c-4.7,0-8.5-3.8-8.5-8.5c0-4.7,3.8-8.5,8.5-8.5s8.5,3.8,8.5,8.5
		C332.8,107.1,329,110.9,324.3,110.9z"/>
    <path class="st0" d="M256,76.8c-14.1,0-25.6,11.5-25.6,25.6S241.9,128,256,128c14.1,0,25.6-11.5,25.6-25.6S270.1,76.8,256,76.8z
		 M256,110.9c-4.7,0-8.5-3.8-8.5-8.5c0-4.7,3.8-8.5,8.5-8.5c4.7,0,8.5,3.8,8.5,8.5C264.5,107.1,260.7,110.9,256,110.9z"/>
    <path class="st0" d="M187.7,76.8c-10.4,0-19.7,6.2-23.7,15.8c-4,9.6-1.8,20.6,5.5,27.9s18.3,9.5,27.9,5.5
		c9.6-4,15.8-13.3,15.8-23.7C213.3,88.3,201.9,76.8,187.7,76.8z M187.7,110.9c-4.7,0-8.5-3.8-8.5-8.5c0-4.7,3.8-8.5,8.5-8.5
		c4.7,0,8.5,3.8,8.5,8.5C196.3,107.1,192.4,110.9,187.7,110.9z"/>
    <path class="st0" d="M358.4,230.4c14.1,0,25.6-11.5,25.6-25.6c0-14.1-11.5-25.6-25.6-25.6c-14.1,0-25.6,11.5-25.6,25.6
		C332.8,218.9,344.3,230.4,358.4,230.4z M358.4,196.3c4.7,0,8.5,3.8,8.5,8.5c0,4.7-3.8,8.5-8.5,8.5s-8.5-3.8-8.5-8.5
		C349.9,200.1,353.7,196.3,358.4,196.3z"/>
<g>

</g>
</svg>
